#!OML:ASF H:\GeneralSubjects\Female5\Project 1\Capture day 1\Session 1\Female5.ASF
:FULLY-SPECIFIED
:DEGREES
190
root 0.937608 21.334 3.95402 -92.4246 80.5889 -107.539
lowerback 13.9858 0.507008 6.90326
upperback -5.78255 3.34893 7.03263
thorax -14.5649 1.49501 3.12975
lowerneck -12.8741 -5.25953 -0.256692
upperneck 48.5936 -3.35524 -2.90767
head 22.4264 -0.57047 -1.8162
rclavicle 1.90833e-014 1.17681e-013
rhumerus -45.2279 19.0316 -53.5079
rradius 61.2983
rwrist -12.8084
rhand -22.4659 -17.8678
rfingers 7.12502
rthumb 3.95889 -47.8108
lclavicle 1.90833e-014 1.17681e-013
lhumerus -59.4172 2.27569 46.3391
lradius 31.7322
lwrist -12.1133
lhand -32.5732 30.3298
lfingers 7.12502
lthumb -5.80218 60.2304
rfemur -26.3134 1.93501 47.2199
rtibia 45.941
rfoot 330.445 -3.03975
rtoes -15.4048
lfemur -31.9617 -6.34446 -14.9895
ltibia 4.0957
lfoot -59.3029 10.1588
ltoes -25.5901
191
root 1.01863 21.2701 3.94615 -90.0503 80.4165 -105.394
lowerback 14.0565 0.503903 6.78947
upperback -5.77263 3.3188 6.99759
thorax -14.598 1.4865 3.16151
lowerneck -12.9175 -5.17282 -0.00371104
upperneck 48.6925 -3.27695 -2.9547
head 22.5216 -0.498255 -1.88181
rclavicle 1.2921e-014 1.59028e-014
rhumerus -45.3408 19.3185 -53.1237
rradius 60.504
rwrist -12.6231
rhand -20.8696 -19.8326
rfingers 7.12502
rthumb 5.50028 -49.7412
lclavicle 1.2921e-014 1.59028e-014
lhumerus -59.1382 2.05209 47.2747
lradius 32.2254
lwrist -11.7038
lhand -32.3546 30.7262
lfingers 7.12502
lthumb -5.59107 60.6324
rfemur -26.7627 1.47749 47.4699
rtibia 47.1424
rfoot 330.871 -2.74889
rtoes -17.1552
lfemur -31.4778 -7.60308 -14.1696
ltibia 3.19601
lfoot -61.6203 8.60609
ltoes -22.6116
192
root 1.10329 21.2122 3.94011 -87.8906 80.1132 -103.471
lowerback 14.1497 0.491608 6.73486
upperback -5.77417 3.30295 7.00924
thorax -14.6614 1.4836 3.21027
lowerneck -13.0233 -5.06206 0.66307
upperneck 48.8077 -3.09505 -3.45131
head 22.6222 -0.360471 -2.25555
rclavicle 1.23246e-014 -6.99722e-014
rhumerus -45.5361 19.7323 -52.8107
rradius 59.7326
rwrist -12.7806
rhand -20.0446 -20.8012
rfingers 7.12502
rthumb 6.29673 -50.6876
lclavicle 1.23246e-014 -6.99722e-014
lhumerus -58.8461 2.04345 48.0509
lradius 32.658
lwrist -11.3711
lhand -32.0187 31.4182
lfingers 7.12502
lthumb -5.26682 61.3327
rfemur -27.117 1.10575 47.8586
rtibia 48.1399
rfoot 331.396 -2.42848
rtoes -16.3923
lfemur -31.1935 -8.42038 -13.3743
ltibia 2.66494
lfoot -63.5447 7.40969
ltoes -18.4659
193
root 1.19401 21.1589 3.93731 -86.2165 79.833 -102.116
lowerback 14.119 0.437849 6.51205
upperback -5.81629 3.20048 7.09561
thorax -14.7085 1.46432 3.46382
lowerneck -12.9279 -4.94638 0.585914
upperneck 48.6909 -3.05449 -3.16311
head 22.4941 -0.344914 -2.06969
rclavicle 9.14409e-015 1.08139e-013
rhumerus -45.903 20.271 -52.6109
rradius 59.0821
rwrist -13.6508
rhand -21.6698 -18.8412
rfingers 7.12502
rthumb 4.7276 -48.7684
lclavicle 9.14409e-015 1.08139e-013
lhumerus -58.6138 2.51076 48.5366
lradius 32.8202
lwrist -11.3231
lhand -31.8334 31.5663
lfingers 7.12502
lthumb -5.08788 61.4852
rfemur -27.5441 0.815766 48.2547
rtibia 49.1478
rfoot 331.67 -1.70469
rtoes -13.9276
lfemur -31.0868 -8.83707 -12.7986
ltibia 2.31966
lfoot -64.7882 7.25739
ltoes -18.0145
194
root 1.29188 21.1065 3.93578 -84.8729 79.7205 -101.095
lowerback 14.0415 0.402176 6.11611
upperback -5.88415 3.07269 7.12861
thorax -14.7575 1.44473 3.76207
lowerneck -12.9387 -4.76323 0.660656
upperneck 48.7697 -2.80961 -3.08125
head 22.5863 -0.228315 -1.99312
rclavicle -1.07344e-014 -5.56597e-014
rhumerus -46.3262 20.6259 -52.2622
rradius 58.7188
rwrist -13.4993
rhand -21.7441 -18.8278
rfingers 7.12502
rthumb 4.65586 -48.7567
lclavicle -1.07344e-014 -5.56597e-014
lhumerus -58.5824 2.67932 49.2547
lradius 33.2443
lwrist -11.1081
lhand -32.1788 30.5515
lfingers 7.12502
lthumb -5.42139 60.4621
rfemur -28.0764 0.566062 48.4932
rtibia 50.3575
rfoot 331.162 -0.113379
rtoes -11.5461
lfemur -30.9874 -8.68709 -12.7709
ltibia 2.30164
lfoot -65.2968 7.0575
ltoes -18.8104
195
root 1.39658 21.0561 3.93371 -83.5142 79.5145 -100.066
lowerback 13.9399 0.381636 5.86191
upperback -5.95572 2.98737 7.1286
thorax -14.7874 1.42921 3.93143
lowerneck -13.0794 -4.63615 0.804501
upperneck 48.88 -2.63813 -3.1003
head 22.7501 -0.136314 -2.00676
rclavicle 7.55382e-015 -1.00187e-013
rhumerus -46.9162 21.03 -52.1774
rradius 58.2196
rwrist -14.1077
rhand -22.5319 -18.2654
rfingers 7.12502
rthumb 3.89515 -48.2096
lclavicle 7.55382e-015 -1.00187e-013
lhumerus -58.7592 2.2943 50.3095
lradius 33.9769
lwrist -10.7102
lhand -32.8127 29.8902
lfingers 7.12502
lthumb -6.03336 59.7842
rfemur -28.5644 0.300118 48.8169
rtibia 51.5567
rfoot 331.222 0.185305
rtoes -9.55512
lfemur -30.9042 -7.84417 -12.9877
ltibia 2.6793
lfoot -65.1606 6.9248
ltoes -19.6821
196
root 1.50411 21.0094 3.9287 -82.1171 79.2916 -99.0568
lowerback 13.7964 0.357837 5.66383
upperback -6.05507 2.90543 7.1105
thorax -14.8204 1.40894 4.04851
lowerneck -13.1779 -4.56958 0.829338
upperneck 48.8615 -2.60771 -3.01392
head 22.7767 -0.120186 -1.96408
rclavicle 7.15625e-015 -8.82604e-014
rhumerus -47.3069 20.9356 -51.8199
rradius 57.7333
rwrist -13.2477
rhand -21.9502 -18.0817
rfingers 7.12502
rthumb 4.45687 -48.0148
lclavicle 7.15625e-015 -8.82604e-014
lhumerus -58.8767 1.95793 51.3532
lradius 34.6716
lwrist -10.3681
lhand -32.6799 30.656
lfingers 7.12502
lthumb -5.90519 60.5538
rfemur -28.9491 -0.0894782 49.1178
rtibia 52.5025
rfoot 331.576 0.410996
rtoes -9.08125
lfemur -30.8115 -6.71368 -13.3404
ltibia 3.19869
lfoot -64.0198 8.19844
ltoes -20.6982
